<svg width="50" height="51" viewBox="0 0 50 51" fill="none" xmlns="http://www.w3.org/2000/svg">
<g clip-path="url(#clip0_345_484)">
<path d="M25 5.3821C31.675 5.3821 32.4667 5.4071 35.1021 5.52793C37.8271 5.65293 40.6333 6.27376 42.6188 8.25918C44.6229 10.2633 45.225 13.0425 45.35 15.7758C45.4708 18.4113 45.4958 19.2029 45.4958 25.8779C45.4958 32.5529 45.4708 33.3446 45.35 35.98C45.2271 38.6904 44.5917 41.5238 42.6188 43.4967C40.6146 45.5008 37.8375 46.1029 35.1021 46.2279C32.4667 46.3488 31.675 46.3738 25 46.3738C18.325 46.3738 17.5333 46.3488 14.8979 46.2279C12.2083 46.105 9.3375 45.455 7.38125 43.4967C5.3875 41.5029 4.775 38.6967 4.65 35.98C4.52917 33.3446 4.50417 32.5529 4.50417 25.8779C4.50417 19.2029 4.52917 18.4113 4.65 15.7758C4.77292 13.0758 5.41458 10.2258 7.38125 8.25918C9.38125 6.25918 12.1708 5.65293 14.8979 5.52793C17.5333 5.4071 18.325 5.3821 25 5.3821ZM25 0.87793C18.2104 0.87793 17.3583 0.907096 14.6917 1.02793C10.8271 1.20501 6.98958 2.28001 4.19583 5.07376C1.39167 7.87793 0.327083 11.7071 0.15 15.5696C0.0291667 18.2363 0 19.0883 0 25.8779C0 32.6675 0.0291667 33.5196 0.15 36.1863C0.327083 40.0467 1.40625 43.8946 4.19583 46.6821C6.99792 49.4842 10.8333 50.5508 14.6917 50.7279C17.3583 50.8488 18.2104 50.8779 25 50.8779C31.7896 50.8779 32.6417 50.8488 35.3083 50.7279C39.1708 50.5508 43.0125 49.4738 45.8042 46.6821C48.6104 43.8758 49.6729 40.0488 49.85 36.1863C49.9708 33.5196 50 32.6675 50 25.8779C50 19.0883 49.9708 18.2363 49.85 15.5696C49.6729 11.705 48.5958 7.86543 45.8042 5.07376C43.0062 2.27585 39.1604 1.20293 35.3083 1.02793C32.6417 0.907096 31.7896 0.87793 25 0.87793Z" fill="black"/>
<path d="M25 13.0405C17.9104 13.0405 12.1625 18.7884 12.1625 25.878C12.1625 32.9676 17.9104 38.7155 25 38.7155C32.0896 38.7155 37.8375 32.9676 37.8375 25.878C37.8375 18.7884 32.0896 13.0405 25 13.0405ZM25 34.2114C20.3979 34.2114 16.6667 30.4801 16.6667 25.878C16.6667 21.2759 20.3979 17.5447 25 17.5447C29.6021 17.5447 33.3333 21.2759 33.3333 25.878C33.3333 30.4801 29.6021 34.2114 25 34.2114Z" fill="black"/>
<path d="M38.3458 15.532C40.0027 15.532 41.3458 14.1888 41.3458 12.532C41.3458 10.8751 40.0027 9.53198 38.3458 9.53198C36.689 9.53198 35.3458 10.8751 35.3458 12.532C35.3458 14.1888 36.689 15.532 38.3458 15.532Z" fill="black"/>
</g>
<defs>
<clipPath id="clip0_345_484">
<rect width="50" height="50" fill="white" transform="translate(0 0.87793)"/>
</clipPath>
</defs>
</svg>
