<svg width="126" height="128" viewBox="0 0 126 128" fill="none" xmlns="http://www.w3.org/2000/svg">
<rect x="35.4644" y="25.49" width="26.5983" height="22.1652" fill="#92D7EF"/>
<path d="M35.4644 47.6552H62.0626V38.7891H50.98C48.7635 38.7891 46.547 36.5726 46.547 34.3561V25.49H35.4644V47.6552Z" fill="#54C4E2"/>
<path d="M6.09632 124.632C6.69155 126.315 8.26328 128 10.2453 128H87.2819C89.264 128 90.8357 126.315 91.4309 124.632C92.0262 122.95 93.05 113.396 93.0502 106.112C94.7108 44.3096 48.7195 45.993 48.7195 45.993C48.7195 45.993 2.81649 44.3096 4.4771 106.112C4.47723 113.396 5.50109 122.95 6.09632 124.632Z" fill="#F2E6C7"/>
<path d="M6.09632 124.633C6.69155 126.315 8.26328 128 10.2453 128H87.2819C89.264 128 90.8357 126.315 91.4309 124.633C91.789 123.621 92.3021 119.76 92.6542 115.259H31.0314C28.8149 115.259 27.1525 113.043 26.0442 110.272C26.0442 110.272 16.0699 80.9032 36.5727 47.9399C23.0999 52.1232 3.37841 65.2226 4.4771 106.112C4.47723 113.396 5.50109 122.95 6.09632 124.633Z" fill="#F4DBA8"/>
<path d="M37.6809 88.661V97.5271H44.3305V104.177H53.1966V97.5271H59.8461V88.661H53.1966V82.0115H44.3305V88.661H37.6809Z" fill="#92D7EF"/>
<path d="M37.6809 88.6609V97.527H44.3305V104.177H53.1966V97.527C48.7635 97.527 44.3305 93.0939 44.3305 88.6609H37.6809Z" fill="#54C4E2"/>
<rect x="42.114" y="12.1909" width="6.64957" height="13.2991" fill="#54C4E2"/>
<rect x="48.7634" y="12.1909" width="6.64957" height="13.2991" fill="#92D7EF"/>
<path d="M0 6.64957V17.7322L21.6111 13.2991H75.3618V6.64957C75.3618 1.66239 69.8205 0 68.7122 0H21.6111L0 6.64957Z" fill="#92D7EF"/>
<path d="M21.6111 13.2992H75.3618V6.64966H21.6111L0 11.0827V17.7323L21.6111 13.2992Z" fill="#54C4E2"/>
<path d="M71.4213 70.9288C82.5404 69.0587 88.3846 66.24 98.0196 57.6296C107.654 66.24 113.499 69.0587 124.618 70.9288C124.618 70.9288 125.726 81.4573 124.618 89.2151C121.367 108.217 114.881 114.231 98.0196 119.692C81.1578 114.231 74.6723 108.217 71.4213 89.2151C70.313 81.4573 71.4213 70.9288 71.4213 70.9288Z" fill="#98DCEE"/>
<path d="M80.1274 76.6284C87.6328 75.3594 91.5777 73.4468 98.0813 67.604C104.585 73.4468 108.53 75.3594 116.035 76.6284C116.035 76.6284 116.783 83.7728 116.035 89.037C113.841 101.931 109.463 106.012 98.0813 109.718C86.6996 106.012 82.3218 101.931 80.1274 89.037C79.3793 83.7728 80.1274 76.6284 80.1274 76.6284Z" fill="#F8E9CB"/>
<path d="M71.4213 89.215C70.313 81.4572 71.4213 70.9287 71.4213 70.9287C76.7534 70.0319 80.8725 68.917 84.7783 67.0498C82.8047 91.4545 89.1271 101.363 113.212 112.489C109.399 115.434 104.468 117.604 98.0196 119.692C81.1578 114.231 74.6723 108.217 71.4213 89.215Z" fill="#54C4E2"/>
<path fill-rule="evenodd" clip-rule="evenodd" d="M84.4478 75.7117C84.6624 90.9048 89.8688 99.5361 103.671 107.587C102.024 108.345 100.17 109.038 98.0813 109.718C86.6996 106.012 82.3218 101.931 80.1274 89.037C79.3793 83.7728 80.1274 76.6284 80.1274 76.6284C81.7061 76.3615 83.1272 76.0661 84.4478 75.7117Z" fill="#F4DBA8"/>
</svg>
