<svg width="46" height="44" viewBox="0 0 46 44" fill="none" xmlns="http://www.w3.org/2000/svg">
<circle cx="3.91954" cy="3.91954" r="3.91954" transform="matrix(1 0 0 -1 14.2874 44)" fill="#333333"/>
<circle cx="18.2069" cy="40.0806" r="1.89655" fill="#949494"/>
<circle cx="3.91954" cy="3.91954" r="3.91954" transform="matrix(1 0 0 -1 31.1034 44)" fill="#333333"/>
<circle cx="35.0229" cy="40.0806" r="1.89655" fill="#949494"/>
<path d="M30.5978 3.79323C30.5978 3.2346 31.0506 2.78174 31.6093 2.78174H41.9771C42.5357 2.78174 42.9886 3.2346 42.9886 3.79323V9.48289C42.9886 10.0415 42.5357 10.4944 41.9771 10.4944H31.6093C31.0506 10.4944 30.5978 10.0415 30.5978 9.48289V3.79323Z" fill="#C794BE"/>
<path d="M14.2874 1.01149C14.2874 0.452861 14.7402 0 15.2988 0H28.5747C29.1333 0 29.5862 0.452861 29.5862 1.01149V9.48276C29.5862 10.0414 29.1333 10.4943 28.5747 10.4943H15.2988C14.7402 10.4943 14.2874 10.0414 14.2874 9.48276V1.01149Z" fill="#9DD5C0"/>
<path d="M9.6419 11.852C9.42675 10.6147 10.3791 9.48242 11.635 9.48242H43.2606C44.4651 9.48242 45.4027 10.5283 45.2716 11.7256L43.5689 27.2773C43.4566 28.3032 42.59 29.0801 41.5579 29.0801H14.3393C13.3557 29.0801 12.5147 28.3727 12.3462 27.4037L9.6419 11.852Z" fill="#FECA5F"/>
<path fill-rule="evenodd" clip-rule="evenodd" d="M0 3.66682C0 3.24785 0.339646 2.9082 0.758621 2.9082H7.06071C7.56034 2.9082 8.02793 3.15417 8.31098 3.56588L10.0785 6.13688C10.2006 6.31437 10.2834 6.51581 10.3215 6.72779L15.0481 33.0002L41.3448 33.0002C41.7638 33.0002 42.1034 33.3398 42.1034 33.7588C42.1034 34.1778 41.7638 34.5174 41.3448 34.5174H15.0481C14.3138 34.5174 13.6849 33.9915 13.5548 33.2688L8.82827 6.99644L7.06071 4.42544H0.758621C0.339646 4.42544 0 4.0858 0 3.66682Z" fill="#333333"/>
</svg>
