<svg width="45" height="44" viewBox="0 0 45 44" fill="none" xmlns="http://www.w3.org/2000/svg">
<rect x="0.283936" y="10.7427" width="43.9141" height="33.1718" fill="#CA936C"/>
<path d="M5.34436 0L0.283936 10.7422H44.1979L39.1376 0H5.34436Z" fill="#E9BB91"/>
<path d="M19.6199 0L18.7605 10.7422H25.8074L24.948 0H19.6199Z" fill="#764F43"/>
<rect x="18.7605" y="10.7427" width="7.04686" height="9.10935" fill="#764F43"/>
<rect x="18.7245" y="34.8906" width="7.03312" height="9.10935" fill="#764F43"/>
<rect x="29.4457" y="15.3828" width="12.0935" height="9.53904" fill="#F5FFFF"/>
<path d="M38.8804 17.875H31.9759C31.6644 17.875 31.3326 18.2074 31.3326 18.5195C31.3326 18.8316 31.6644 19.1641 31.9759 19.1641L38.8804 19.1641C39.2021 19.1641 39.5237 18.8419 39.5237 18.5195C39.5237 18.1972 39.2021 17.875 38.8804 17.875Z" fill="#764F43"/>
<path d="M14.8647 39.1016H3.62891C3.14939 39.1015 2.94275 39.434 2.94275 39.7461C2.94275 40.0582 3.14939 40.3906 3.62891 40.3906H14.8647C15.3599 40.3906 15.5509 40.0684 15.5509 39.7461C15.5509 39.4238 15.3599 39.1016 14.8647 39.1016Z" fill="#764F43"/>
<path d="M5.40557 38.4141C5.71709 38.4141 6.04885 38.2089 6.04885 37.8984V32.4414C6.04885 32.4414 6.77792 33.2149 7.33541 33.6445C7.53453 33.798 7.95724 33.8057 8.15023 33.6445C8.40754 33.4297 8.43637 33.0323 8.236 32.7852C7.67851 32.0977 6.34906 30.7656 6.04885 30.4649C5.85282 30.2685 5.68279 30.1641 5.40557 30.1641C5.12835 30.1641 4.95833 30.2685 4.76231 30.4649C4.41924 30.8086 3.08981 32.2266 2.61807 32.7422C2.43914 32.9378 2.50576 33.3825 2.70383 33.5586C2.90776 33.7399 3.32653 33.7941 3.56154 33.5586C3.81884 33.3008 4.76231 32.4414 4.76231 32.4414L4.76231 37.8984C4.76228 38.2089 5.09405 38.4141 5.40557 38.4141Z" fill="#764F43"/>
<path d="M12.1141 38.4141C12.4256 38.4141 12.7573 38.2089 12.7573 37.8984V32.4414C12.7573 32.4414 13.4864 33.2149 14.0439 33.6445C14.243 33.798 14.6657 33.8057 14.8587 33.6445C15.116 33.4297 15.1449 33.0323 14.9445 32.7852C14.387 32.0977 13.0576 30.7656 12.7573 30.4649C12.5613 30.2685 12.3913 30.1641 12.1141 30.1641C11.8368 30.1641 11.6668 30.2685 11.4708 30.4649C11.1277 30.8086 9.79831 32.2266 9.32657 32.7422C9.14763 32.9378 9.21426 33.3825 9.41233 33.5586C9.61625 33.7399 10.035 33.7941 10.27 33.5586C10.5273 33.3008 11.4708 32.4414 11.4708 32.4414L11.4708 37.8984C11.4708 38.2089 11.8025 38.4141 12.1141 38.4141Z" fill="#764F43"/>
<path d="M38.8804 21.3125H31.9759C31.6644 21.3125 31.3326 21.6449 31.3326 21.957C31.3326 22.2691 31.6644 22.6016 31.9759 22.6016L38.8804 22.6016C39.2021 22.6016 39.5237 22.2794 39.5237 21.957C39.5237 21.6347 39.2021 21.3125 38.8804 21.3125Z" fill="#764F43"/>
</svg>
