<svg width="74" height="44" viewBox="0 0 74 44" fill="none" xmlns="http://www.w3.org/2000/svg">
<rect x="10.5709" y="0.000976562" width="37.4753" height="30.4487" fill="#FDC981"/>
<rect x="25.2931" y="0.000976562" width="8.19772" height="10.7072" fill="#FDF0E0"/>
<path d="M48.0462 30.4497V0.000976562L10.5709 30.4497H48.0462Z" fill="#FDA52C"/>
<rect x="14.7537" y="22.7529" width="8.03042" height="4.01521" fill="#FDF0E0"/>
<rect x="10.5709" y="30.4497" width="62.905" height="4.18251" fill="#5E7B8B"/>
<circle cx="59.4228" cy="37.9764" r="6.02282" fill="black"/>
<ellipse cx="59.4225" cy="37.9788" rx="2.00761" ry="2.00761" fill="white"/>
<circle cx="23.2848" cy="37.9764" r="6.02282" fill="black"/>
<ellipse cx="23.2858" cy="37.9788" rx="2.00761" ry="2.00761" fill="white"/>
<path d="M48.0464 30.451V5.35596H62.9361C62.9361 5.35596 67.035 13.6373 69.7118 18.3217C70.7672 20.1686 73.476 20.8312 73.476 23.0061V30.451H48.0464Z" fill="#AEBDC4"/>
<path d="M52.3124 19.9104V9.4541H60.4264L65.6964 19.9104H52.3124Z" fill="#E1EFFA"/>
<path d="M19.0233 4.01856H1.28147C0.524292 4.01851 0.197998 4.70878 0.197998 5.35693C0.197998 6.00509 0.524292 6.69536 1.28147 6.69536H19.0233C19.8052 6.69536 20.1068 6.02631 20.1068 5.35696C20.1068 4.68761 19.8052 4.01858 19.0233 4.01856Z" fill="#27313A"/>
<path d="M5.80236 9.36816H2.3727C1.7035 9.36817 1.3689 10.0584 1.3689 10.7065C1.3689 11.3547 1.84014 12.045 2.3727 12.045H5.80236C6.30689 12.045 6.72251 11.3759 6.72251 10.7066C6.72251 10.0372 6.30426 9.36816 5.80236 9.36816Z" fill="#27313A"/>
<path d="M21.6126 9.36816H9.31603C8.7561 9.36812 8.06128 10.0584 8.06128 10.7065C8.06128 11.3547 8.7561 12.045 9.31603 12.045H21.6126C22.1909 12.045 22.7837 11.3759 22.7837 10.7066C22.7837 10.0372 22.1909 9.36818 21.6126 9.36816Z" fill="#27313A"/>
<path d="M13.7492 14.7232H7.80999C7.22137 14.7231 6.72253 15.4134 6.72253 16.0615C6.72253 16.7097 7.22444 17.4 7.80999 17.4H13.7492C14.2511 17.4 14.753 16.7309 14.753 16.0616C14.753 15.3922 14.2511 14.7232 13.7492 14.7232Z" fill="#27313A"/>
<path d="M26.9656 14.7231H17.1785C16.7204 14.7231 16.0911 15.4134 16.0911 16.0615C16.0911 16.7097 16.7204 17.4 17.1785 17.4H26.9656C27.4387 17.4 28.1367 16.7309 28.1367 16.0616C28.1367 15.3922 27.4387 14.7232 26.9656 14.7231Z" fill="#27313A"/>
</svg>
