<svg width="48" height="44" viewBox="0 0 48 44" fill="none" xmlns="http://www.w3.org/2000/svg">
<path d="M44.5308 29.0646C43.3228 29.0646 42.2246 27.9663 42.2246 26.5387V40.0467C42.3344 43.2316 40.4674 43.4512 39.3692 43.4512C38.271 43.4512 36.404 41.8039 36.404 41.8039C36.404 41.8039 35.3058 43.4512 33.4388 43.4512C31.5719 43.4512 30.6933 42.0235 30.6933 40.0467C30.6933 38.0699 30.5835 18.7404 30.5835 18.7404C30.5835 18.7404 24.4334 20.0583 21.6879 7.5395C21.5781 6.55101 21.9897 5.42864 23.1156 5.12265C24.246 4.81543 25.5317 5.56099 25.971 6.44041L28.387 12.3005C28.7165 13.2186 30.254 13.1395 31.0228 13.1404L39.3692 13.0306C42.6639 13.0306 46.9469 14.3484 46.9469 19.6199V26.5387C46.9469 28.5154 45.7389 29.0646 44.5308 29.0646Z" fill="white"/>
<path fill-rule="evenodd" clip-rule="evenodd" d="M25.4716 6.66964L27.8751 12.4991C28.1495 13.2427 28.8837 13.5028 29.4418 13.6045C29.9452 13.6963 30.4927 13.6926 30.8609 13.6901C30.9195 13.6897 30.9736 13.6894 31.0222 13.6894L31.0301 13.6894L39.3728 13.5796C40.9615 13.5801 42.7322 13.9007 44.089 14.8052C45.4128 15.6877 46.3979 17.1602 46.3979 19.6198V26.5386C46.3979 27.4101 46.1365 27.8698 45.8367 28.1241C45.5199 28.3929 45.0634 28.5153 44.5309 28.5153C43.658 28.5153 42.7738 27.6958 42.7738 26.5386V19.6198C42.7738 19.3165 42.5279 19.0707 42.2247 19.0707C41.9214 19.0707 41.6755 19.3165 41.6755 19.6198V40.0561L41.6759 40.0656C41.7271 41.5517 41.3171 42.1995 40.9157 42.5076C40.4801 42.8419 39.9021 42.902 39.3693 42.902C39.2151 42.902 38.9799 42.8391 38.6757 42.6965C38.3825 42.5591 38.0728 42.3705 37.7842 42.1738C37.4973 41.9782 37.2415 41.7814 37.0569 41.6331C37.0191 41.6028 36.9844 41.5745 36.9532 41.5488V30.4921C36.9532 30.1889 36.7074 29.943 36.4041 29.943C36.1008 29.943 35.855 30.1889 35.855 30.4921V41.6211C35.8351 41.6459 35.8121 41.6738 35.7861 41.7042C35.6706 41.8392 35.4986 42.0203 35.2758 42.2009C34.827 42.5648 34.2044 42.902 33.4389 42.902C32.6632 42.902 32.1459 42.6148 31.8053 42.1607C31.4478 41.684 31.2425 40.9642 31.2425 40.0466C31.2425 39.0563 31.215 33.7274 31.1876 28.6492C31.1738 26.1094 31.1601 23.6314 31.1498 21.7884C31.1447 20.8669 31.1404 20.1041 31.1374 19.5717L31.1327 18.7381L31.1327 18.7374C31.1327 18.7374 31.1327 18.7372 30.5836 18.7403L31.1327 18.7372L31.1288 18.0619L30.4727 18.2025L30.4719 18.2027L30.4685 18.2033C30.4628 18.2043 30.4517 18.2062 30.4354 18.2086C30.4027 18.2133 30.3493 18.2198 30.2774 18.2246C30.1334 18.2342 29.9161 18.237 29.6432 18.2052C29.0993 18.142 28.3282 17.9413 27.4668 17.3755C25.7516 16.2488 23.5864 13.6092 22.2309 7.45136C22.1482 6.62167 22.5053 5.85748 23.2597 5.65245C23.6651 5.54227 24.1296 5.61466 24.5576 5.82792C24.9817 6.03921 25.3114 6.36015 25.4716 6.66964ZM30.0378 19.3292C29.8857 19.3279 29.7107 19.3187 29.5163 19.2961C28.8212 19.2152 27.8832 18.963 26.8639 18.2934C24.8205 16.9511 22.542 13.9968 21.1516 7.65703L21.1454 7.62878L21.1422 7.60004C21.0159 6.46327 21.4827 4.99735 22.9717 4.59267C23.6967 4.39562 24.4402 4.54241 25.0474 4.84497C25.6513 5.14586 26.18 5.62991 26.4623 6.19493L26.4711 6.21267L28.8996 12.1029L28.904 12.1149C28.9629 12.2793 29.1568 12.4362 29.6387 12.5241C30.0315 12.5957 30.4613 12.5936 30.8366 12.5918C30.8992 12.5914 30.9604 12.5911 31.0195 12.5912L39.3657 12.4814H39.3693C41.0744 12.4814 43.0909 12.8199 44.6982 13.8915C46.3397 14.9858 47.4961 16.8079 47.4961 19.6198V26.5386C47.4961 27.6438 47.1535 28.4471 46.5472 28.9615C45.958 29.4615 45.2065 29.6136 44.5309 29.6136C43.8761 29.6136 43.2628 29.3656 42.7738 28.9504V40.0373C42.8302 41.7304 42.362 42.7819 41.5843 43.3788C40.8393 43.9505 39.9347 44.0002 39.3693 44.0002C38.9744 44.0002 38.5644 43.8572 38.2096 43.6909C37.8439 43.5195 37.4809 43.2962 37.1655 43.0811C36.9029 42.9021 36.6661 42.7238 36.4789 42.5766C36.3437 42.7215 36.1727 42.8876 35.9675 43.054C35.4003 43.5138 34.5404 44.0002 33.4389 44.0002C32.3477 44.0002 31.4922 43.5735 30.9267 42.8196C30.3782 42.0883 30.1443 41.1059 30.1443 40.0466C30.1443 39.0602 30.1168 33.7359 30.0894 28.6552C30.0756 26.1155 30.0619 23.6375 30.0516 21.7945C30.0465 20.873 30.0422 20.1103 30.0392 19.5779L30.0378 19.3292Z" fill="black"/>
<circle cx="6.5893" cy="6.5893" r="6.5893" transform="matrix(-1 0 0 1 42.6639 0.32959)" fill="black"/>
<circle cx="5.49109" cy="5.49109" r="5.49109" transform="matrix(-1 0 0 1 41.5657 1.42773)" fill="white"/>
<path d="M3.44135 29.0646C4.64938 29.0646 5.7476 27.9663 5.7476 26.5387V40.0467C5.63778 43.2316 7.50475 43.4512 8.60297 43.4512C9.70118 43.4512 11.5682 41.8039 11.5682 41.8039C11.5682 41.8039 12.6664 43.4512 14.5333 43.4512C16.4003 43.4512 17.2789 42.0235 17.2789 40.0467C17.2789 38.0699 17.3887 18.7404 17.3887 18.7404C17.3887 18.7404 23.5387 20.0583 26.2843 7.5395C26.3941 6.55101 25.9824 5.42864 24.8566 5.12265C23.7262 4.81543 22.4405 5.56099 22.0012 6.44041L19.5851 12.3005C19.2557 13.2186 17.7182 13.1395 16.9494 13.1404L8.60297 13.0306C5.30832 13.0306 1.02527 14.3484 1.02527 19.6199V26.5387C1.02527 28.5154 2.23331 29.0646 3.44135 29.0646Z" fill="white"/>
<path fill-rule="evenodd" clip-rule="evenodd" d="M22.5005 6.66964L20.0971 12.4991C19.8227 13.2427 19.0884 13.5028 18.5304 13.6045C18.0269 13.6963 17.4795 13.6926 17.1112 13.6901C17.0526 13.6897 16.9986 13.6894 16.9499 13.6894L16.9421 13.6894L8.59933 13.5796C7.01067 13.5801 5.23999 13.9007 3.88313 14.8052C2.55938 15.6877 1.57429 17.1602 1.57429 19.6198V26.5386C1.57429 27.4101 1.8357 27.8698 2.13547 28.1241C2.45225 28.3929 2.90881 28.5153 3.44126 28.5153C4.3142 28.5153 5.19841 27.6958 5.19841 26.5386V19.6198C5.19841 19.3165 5.44425 19.0707 5.74752 19.0707C6.05078 19.0707 6.29662 19.3165 6.29662 19.6198V40.0561L6.2963 40.0656C6.24505 41.5517 6.6551 42.1995 7.05649 42.5076C7.49209 42.8419 8.07004 42.902 8.60288 42.902C8.75705 42.902 8.99226 42.8391 9.29644 42.6965C9.58967 42.5591 9.89935 42.3705 10.188 42.1738C10.4748 41.9782 10.7307 41.7814 10.9152 41.6331C10.953 41.6028 10.9877 41.5745 11.019 41.5488V30.4921C11.019 30.1889 11.2648 29.943 11.5681 29.943C11.8713 29.943 12.1172 30.1889 12.1172 30.4921V41.6211C12.1371 41.6459 12.1601 41.6738 12.1861 41.7042C12.3015 41.8392 12.4736 42.0203 12.6964 42.2009C13.1451 42.5648 13.7678 42.902 14.5333 42.902C15.309 42.902 15.8263 42.6148 16.1668 42.1607C16.5244 41.684 16.7297 40.9642 16.7297 40.0466C16.7297 39.0563 16.7572 33.7274 16.7846 28.6492C16.7983 26.1094 16.8121 23.6314 16.8224 21.7884C16.8275 20.8669 16.8318 20.1041 16.8348 19.5717L16.8395 18.7381L16.8395 18.7374C16.8395 18.7374 16.8395 18.7372 17.3886 18.7403L16.8395 18.7372L16.8434 18.0619L17.4994 18.2025L17.5003 18.2027L17.5037 18.2033C17.5093 18.2043 17.5204 18.2062 17.5368 18.2086C17.5695 18.2133 17.6229 18.2198 17.6948 18.2246C17.8388 18.2342 18.056 18.237 18.329 18.2052C18.8728 18.142 19.644 17.9413 20.5053 17.3755C22.2206 16.2488 24.3857 13.6092 25.7413 7.45136C25.824 6.62167 25.4669 5.85748 24.7125 5.65245C24.3071 5.54227 23.8426 5.61466 23.4145 5.82792C22.9905 6.03921 22.6608 6.36015 22.5005 6.66964ZM17.9344 19.3292C18.0864 19.3279 18.2614 19.3187 18.4559 19.2961C19.151 19.2152 20.0889 18.963 21.1083 18.2934C23.1517 16.9511 25.4301 13.9968 26.8205 7.65703L26.8267 7.62878L26.8299 7.60004C26.9562 6.46327 26.4895 4.99735 25.0005 4.59267C24.2755 4.39562 23.532 4.54241 22.9248 4.84497C22.3209 5.14586 21.7921 5.62991 21.5099 6.19493L21.501 6.21267L19.0725 12.1029L19.0682 12.1149C19.0092 12.2793 18.8154 12.4362 18.3334 12.5241C17.9407 12.5957 17.5109 12.5936 17.1356 12.5918C17.0729 12.5914 17.0118 12.5911 16.9526 12.5912L8.60649 12.4814H8.60288C6.8978 12.4814 4.88126 12.8199 3.27395 13.8915C1.63251 14.9858 0.476074 16.8079 0.476074 19.6198V26.5386C0.476074 27.6438 0.818688 28.4471 1.42495 28.9615C2.01419 29.4615 2.76567 29.6136 3.44126 29.6136C4.0961 29.6136 4.70936 29.3656 5.19841 28.9504V40.0373C5.14193 41.7304 5.61015 42.7819 6.38788 43.3788C7.13286 43.9505 8.0375 44.0002 8.60288 44.0002C8.99781 44.0002 9.40781 43.8572 9.76256 43.6909C10.1283 43.5195 10.4912 43.2962 10.8066 43.0811C11.0693 42.9021 11.3061 42.7238 11.4932 42.5766C11.6285 42.7215 11.7995 42.8876 12.0047 43.054C12.5718 43.5138 13.4318 44.0002 14.5333 44.0002C15.6245 44.0002 16.48 43.5735 17.0454 42.8196C17.5939 42.0883 17.8279 41.1059 17.8279 40.0466C17.8279 39.0602 17.8553 33.7359 17.8828 28.6552C17.8965 26.1155 17.9103 23.6375 17.9206 21.7945C17.9257 20.873 17.93 20.1103 17.933 19.5779L17.9344 19.3292Z" fill="black"/>
<circle cx="11.8975" cy="6.91889" r="6.5893" fill="black"/>
<circle cx="11.8976" cy="6.91882" r="5.49109" fill="white"/>
<path fill-rule="evenodd" clip-rule="evenodd" d="M23.9778 0C24.4024 0 24.7466 0.344182 24.7466 0.768752V2.30626C24.7466 2.73083 24.4024 3.07501 23.9778 3.07501C23.5533 3.07501 23.2091 2.73083 23.2091 2.30626V0.768752C23.2091 0.344182 23.5533 0 23.9778 0Z" fill="black"/>
<path fill-rule="evenodd" clip-rule="evenodd" d="M21.7589 3.94822C21.4111 4.19175 20.9317 4.10722 20.6882 3.75944L19.8063 2.49999C19.5628 2.1522 19.6473 1.67285 19.9951 1.42932C20.3429 1.1858 20.8223 1.27032 21.0658 1.61811L21.9477 2.87756C22.1912 3.22535 22.1067 3.7047 21.7589 3.94822Z" fill="black"/>
<path fill-rule="evenodd" clip-rule="evenodd" d="M27.9088 1.42918C28.2566 1.6727 28.3412 2.15205 28.0976 2.49984L27.2158 3.75929C26.9722 4.10708 26.4929 4.1916 26.1451 3.94808C25.7973 3.70455 25.7128 3.2252 25.9563 2.87742L26.8382 1.61797C27.0817 1.27018 27.5611 1.18566 27.9088 1.42918Z" fill="black"/>
</svg>
