<svg width="45" height="44" viewBox="0 0 45 44" fill="none" xmlns="http://www.w3.org/2000/svg">
<circle cx="22.2839" cy="22" r="22" fill="#F7931E"/>
<path fill-rule="evenodd" clip-rule="evenodd" d="M34.7872 12.037C34.8917 12.1387 34.8939 12.3059 34.7921 12.4103L33.0116 14.2386C32.1138 15.1604 30.6432 15.2771 29.4867 14.366C29.3722 14.2757 29.3525 14.1097 29.4428 13.9952C29.533 13.8807 29.699 13.861 29.8135 13.9512C30.77 14.7048 31.9349 14.5874 32.6334 13.8702L34.4139 12.0419C34.5156 11.9375 34.6828 11.9353 34.7872 12.037Z" fill="#FAFAFA"/>
<path d="M25.0115 25.7324C23.1804 27.6126 20.1719 27.6524 18.2917 25.8214C16.4115 23.9903 16.3717 20.9818 18.2028 19.1016C20.0338 17.2214 23.0424 17.1816 24.9225 19.0127C26.8027 20.8437 26.8425 23.8523 25.0115 25.7324ZM18.5858 19.4746C16.9608 21.1433 16.9961 23.8133 18.6647 25.4383C20.3334 27.0634 23.0034 27.028 24.6284 25.3594C26.2535 23.6908 26.2181 21.0207 24.5495 19.3957C22.8809 17.7707 20.2108 17.806 18.5858 19.4746Z" fill="white"/>
<path fill-rule="evenodd" clip-rule="evenodd" d="M22.1392 10.8973C22.6479 10.375 23.4836 10.364 24.0058 10.8726L32.958 19.5909C33.4803 20.0995 33.4913 20.9352 32.9827 21.4575L20.949 33.814C20.4404 34.3363 19.6047 34.3473 19.0824 33.8387L10.1302 25.1204C9.60796 24.6118 9.5969 23.7761 10.1055 23.2538L22.1392 10.8973ZM23.6375 11.2509C23.3241 10.9457 22.8227 10.9523 22.5175 11.2657L21.2896 12.5266L31.3765 22.35L32.6044 21.0891C32.9096 20.7758 32.903 20.2743 32.5896 19.9692L23.6375 11.2509ZM31.0081 22.7283L20.9212 12.9048L12.0801 21.9831L22.167 31.8065L31.0081 22.7283ZM21.7987 32.1848L11.7117 22.3613L10.4838 23.6222C10.1786 23.9356 10.1852 24.437 10.4986 24.7422L19.4508 33.4605C19.7641 33.7656 20.2656 33.759 20.5707 33.4456L21.7987 32.1848ZM24.36 22.3838C24.3601 22.5296 24.2421 22.6479 24.0963 22.6481L18.9312 22.6542C18.7854 22.6544 18.667 22.5364 18.6669 22.3906C18.6667 22.2448 18.7848 22.1264 18.9306 22.1262L24.0956 22.1201C24.2414 22.1199 24.3598 22.238 24.36 22.3838Z" fill="white"/>
<path d="M22.3902 25.1451C21.9833 25.5629 21.3147 25.5717 20.8969 25.1648C20.4791 24.7579 20.4702 24.0894 20.8771 23.6716C21.284 23.2537 21.9526 23.2449 22.3704 23.6518C22.7882 24.0587 22.7971 24.7273 22.3902 25.1451ZM21.3225 24.1053C21.1551 24.2771 21.1587 24.5521 21.3306 24.7195C21.5025 24.8869 21.7775 24.8832 21.9448 24.7114C22.1122 24.5395 22.1086 24.2645 21.9367 24.0971C21.7648 23.9298 21.4898 23.9334 21.3225 24.1053Z" fill="white"/>
<path d="M22.3373 21.1631C21.9304 21.581 21.2619 21.5898 20.844 21.1829C20.4262 20.776 20.4174 20.1074 20.8243 19.6896C21.2312 19.2718 21.8997 19.263 22.3176 19.6699C22.7354 20.0768 22.7442 20.7453 22.3373 21.1631ZM21.2696 20.1233C21.1023 20.2952 21.1059 20.5702 21.2778 20.7376C21.4496 20.9049 21.7246 20.9013 21.892 20.7294C22.0593 20.5576 22.0557 20.2826 21.8838 20.1152C21.712 19.9478 21.437 19.9515 21.2696 20.1233Z" fill="white"/>
<path d="M30.8463 15.2005C30.236 15.8272 29.2331 15.8405 28.6064 15.2302C27.9797 14.6198 27.9664 13.617 28.5767 12.9903C29.1871 12.3635 30.1899 12.3503 30.8167 12.9606C31.4434 13.571 31.4567 14.5738 30.8463 15.2005ZM28.8885 13.2939C28.4459 13.7484 28.4555 14.4757 28.91 14.9184C29.3646 15.3611 30.0919 15.3514 30.5345 14.8969C30.9772 14.4424 30.9676 13.715 30.513 13.2724C30.0585 12.8297 29.3312 12.8393 28.8885 13.2939Z" fill="white"/>
<path d="M32.4537 19.0998C33.4795 18.0464 34.0449 16.6287 34.0254 15.1584C34.006 13.6882 33.4033 12.2859 32.3499 11.2601C31.2965 10.2342 29.8788 9.66883 28.4086 9.68829C26.9383 9.70775 25.536 10.3105 24.5102 11.3638L24.8935 11.7371C25.8204 10.7854 27.0873 10.2409 28.4156 10.2233C29.744 10.2057 31.0249 10.7165 31.9766 11.6434C32.9283 12.5702 33.4728 13.8372 33.4904 15.1655C33.508 16.4939 32.9972 17.7748 32.0703 18.7265L32.4537 19.0998Z" fill="white"/>
</svg>
