<svg width="20" height="11" viewBox="0 0 20 11" fill="none" xmlns="http://www.w3.org/2000/svg">
<path d="M10.0034 10.2267C9.45587 10.2277 8.9135 10.1208 8.40732 9.91199C7.90114 9.70323 7.44107 9.39674 7.05341 9.01006L0.245076 2.20173C0.0881566 2.04481 0 1.83198 0 1.61006C0 1.38814 0.0881566 1.17531 0.245076 1.01839C0.401996 0.861472 0.614825 0.773315 0.836743 0.773315C1.05866 0.773315 1.27149 0.861472 1.42841 1.01839L8.23674 7.82673C8.70549 8.29489 9.34091 8.55786 10.0034 8.55786C10.6659 8.55786 11.3013 8.29489 11.7701 7.82673L18.5784 1.01839C18.7353 0.861472 18.9482 0.773315 19.1701 0.773315C19.392 0.773315 19.6048 0.861472 19.7617 1.01839C19.9187 1.17531 20.0068 1.38814 20.0068 1.61006C20.0068 1.83198 19.9187 2.04481 19.7617 2.20173L12.9534 9.01006C12.5658 9.39674 12.1057 9.70323 11.5995 9.91199C11.0933 10.1208 10.551 10.2277 10.0034 10.2267Z" fill="black"/>
</svg>
