<svg width="118" height="128" viewBox="0 0 118 128" fill="none" xmlns="http://www.w3.org/2000/svg">
<path d="M55.1398 42C61.753 42.8267 65.1398 36 74.6398 35C81.571 34.2704 89.6398 40 89.6398 36.5C89.6398 33.9462 89.6398 14.4999 89.6395 6C89.6393 0 91.5947 0 96.8671 0C102.14 0 104.042 0 104.774 6C105.14 8.99989 115.863 103.91 117.163 115C118.686 128 105.64 128 105.64 128H11.6398C11.6398 128 5.23067 128 1.92406 123.5C0.521335 121.591 -0.323059 118.872 0.117034 115C1.17045 105.731 8.63864 40.0105 11.4614 15.1698L12.5034 6C13.1852 0 15.1395 0 20.1395 0C25.1395 0 27.1395 0 27.1395 6L27.1398 32C27.1398 36 34.1398 33.5 39.1398 35C44.1398 36.5 47.1398 41 55.1398 42Z" fill="#BDDBFF"/>
<path d="M11.6398 128H105.64C105.64 128 118.686 128 117.163 115C115.863 103.91 105.14 8.99989 104.774 6C104.042 0 102.14 0 96.8671 0C96.8671 0 108.271 106.484 109.065 113.5C110.14 123 107.64 123.5 102.14 123.5H1.92407C5.23067 128 11.6398 128 11.6398 128Z" fill="#9BC9FF"/>
<path d="M27.1398 32L27.1395 6C27.1395 0 25.1395 0 20.1395 0C20.1395 0 19.1577 23.7023 19.1395 26.5C19.1266 28.5 19.3558 29.7163 20.1395 30.5C21.6395 32 27.1398 32 27.1398 32Z" fill="#9BC9FF"/>
<path d="M37.0237 101.5H52.5237C53.5 101.5 54.5238 100.5 54.5238 98.9997C54.5238 97.765 53.6623 96.9997 52.5237 96.9997H38.5237L43.5237 88.4997C43.5237 88.4997 44.1637 90.2796 45.0236 91.9998C45.5235 92.9998 46.825 93.349 47.5236 92.9998C48.2222 92.6505 48.6949 91.856 48.5237 90.9997C48.0238 88.4998 47.5237 86.4996 46.5237 81.9997C46.0237 79.7497 45.8842 79.7129 43.5237 80.4997C39.8718 81.7169 38.5234 81.9998 35.5234 82.9998C34.5454 83.3258 33.6991 84.5276 34.0234 85.4998C34.3477 86.4719 35.0236 86.9998 36.0236 86.9998C37.0236 86.9998 39.5237 86.4997 39.5237 86.4997C39.5237 86.4997 34.5236 94.9998 34.0237 95.9997C33.4998 97.0476 33.5236 98.4998 34.0236 99.4998C34.5236 100.5 35.5236 101.5 37.0237 101.5Z" fill="white"/>
<path d="M81.5641 94.6521L73.0888 81.6746C72.5549 80.8571 71.1579 80.5467 69.9019 81.3669C68.8682 82.042 68.6985 83.1819 69.3211 84.1351L76.9763 95.8568L67.1255 96.3183C67.1255 96.3183 68.2658 94.8092 69.2358 93.1487C69.7998 92.1833 69.3805 90.9026 68.7061 90.5087C68.0317 90.1148 67.108 90.1534 66.4847 90.765C64.6649 92.5505 63.2637 94.0629 60.0429 97.3607C58.4325 99.0097 58.478 99.1465 60.4274 100.693C63.4434 103.085 64.4175 104.059 66.8952 106.024C67.7029 106.665 69.1719 106.716 69.8085 105.913C70.4451 105.11 70.5175 104.255 69.9707 103.418C69.4239 102.581 67.6382 100.761 67.6382 100.761C67.6382 100.761 77.489 100.3 78.5996 100.171C79.7634 100.037 80.9663 99.223 81.5301 98.2576C82.094 97.2921 82.3844 95.9081 81.5641 94.6521Z" fill="white"/>
<path d="M54.0115 60.9035L46.0507 74.203C45.5493 75.0407 45.8815 76.4327 47.1686 77.2032C48.2279 77.8373 49.3271 77.4911 49.9119 76.5142L57.1022 64.5018L61.8275 73.1575C61.8275 73.1575 59.9716 72.7925 58.054 72.6469C56.9392 72.5622 55.9711 73.4995 55.912 74.2783C55.8529 75.0571 56.2918 75.8708 57.1144 76.1637C59.5162 77.0187 61.4893 77.6169 65.8639 79.07C68.0513 79.7966 68.1545 79.6957 68.6918 77.2663C69.523 73.5077 69.9728 72.2055 70.6556 69.1178C70.8781 68.1112 70.2816 66.7678 69.2809 66.5467C68.2802 66.3257 67.4801 66.6345 66.9665 67.4926C66.4529 68.3506 65.598 70.7526 65.598 70.7526C65.598 70.7526 60.8727 62.0967 60.2715 61.1542C59.6414 60.1665 58.3832 59.4411 57.2684 59.3565C56.1535 59.2719 54.782 59.6164 54.0115 60.9035Z" fill="white"/>
</svg>
