<svg width="50" height="34" viewBox="0 0 50 34" fill="none" xmlns="http://www.w3.org/2000/svg">
<path d="M49.9991 5.10509C49.9991 4.03771 49.5775 3.07204 48.9049 2.33578C48.8937 2.32116 48.8912 2.30392 48.8791 2.28921C48.8679 2.27631 48.8524 2.27108 48.8403 2.25907C48.0755 1.45892 46.9978 0.952881 45.7976 0.952881H4.20229C3.00215 0.952881 1.92439 1.45892 1.1579 2.25907C1.14671 2.27108 1.13029 2.27631 1.1191 2.29011C1.10701 2.30392 1.10447 2.32197 1.09328 2.33668C0.421643 3.07294 0 4.03771 0 5.10509V29.5774C0 30.6707 0.438881 31.6595 1.14067 32.4019C1.15447 32.4174 1.1588 32.4364 1.17433 32.4511C1.17947 32.4562 1.18552 32.4571 1.19075 32.4623C1.95552 33.2418 3.02029 33.7297 4.20238 33.7297H45.7977C46.9798 33.7297 48.0455 33.2409 48.8093 32.4615C48.8145 32.4571 48.8205 32.4555 48.8257 32.4512C48.8404 32.4374 48.8446 32.4184 48.8584 32.4037C49.5611 31.6614 50 30.6716 50 29.5774V5.10509H49.9991ZM33.634 16.048L48.0428 4.10062C48.1842 4.40756 48.2678 4.74636 48.2678 5.10501V29.5773C48.2678 29.9015 48.2006 30.2093 48.0842 30.493L33.634 16.048ZM45.7976 2.66421C46.1606 2.66421 46.5029 2.74697 46.8141 2.88667L25 20.9728L3.18581 2.88667C3.49708 2.74705 3.83939 2.66421 4.20229 2.66421H45.7976ZM1.91582 30.4922C1.7994 30.2095 1.73216 29.9008 1.73216 29.5766V5.10509C1.73216 4.74644 1.81582 4.40756 1.95715 4.1007L16.366 16.048L1.91582 30.4922ZM4.20229 32.0174C3.8023 32.0174 3.42976 31.9139 3.09529 31.7468L17.6972 17.1508L24.4438 22.7447C24.6042 22.8784 24.8025 22.9456 25 22.9456C25.1974 22.9456 25.3957 22.8784 25.5561 22.7447L32.3027 17.1508L46.9046 31.7468C46.5701 31.914 46.1977 32.0174 45.7975 32.0174H4.20229Z" fill="black"/>
</svg>
