<svg width="40" height="51" viewBox="0 0 40 51" fill="none" xmlns="http://www.w3.org/2000/svg">
<path d="M40 20.4915C40 31.5371 20 50.6915 20 50.6915C20 50.6915 0 31.5371 0 20.4915C0 9.44576 8.95431 0.491455 20 0.491455C31.0457 0.491455 40 9.44576 40 20.4915Z" fill="black"/>
<path d="M38 20.4912C38 30.4323 20 47.8912 20 47.8912C20 47.8912 2 30.4323 2 20.4912C2 10.5501 10.0589 2.49121 20 2.49121C29.9411 2.49121 38 10.5501 38 20.4912Z" fill="white"/>
<ellipse cx="20" cy="20.4914" rx="9.6" ry="9.6" fill="black"/>
<circle cx="20" cy="20.4914" r="7.6" fill="white"/>
</svg>
