<?xml version="1.0" encoding="UTF-8" standalone="no"?>
<svg
   id="Слой_1"
   data-name="Слой 1"
   viewBox="0 0 1113.41 416.26"
   version="1.1"
   sodipodi:docname="hph logo svg blk.svg"
   inkscape:version="1.3.2 (091e20e, 2023-11-25)"
   xmlns:inkscape="http://www.inkscape.org/namespaces/inkscape"
   xmlns:sodipodi="http://sodipodi.sourceforge.net/DTD/sodipodi-0.dtd"
   xmlns="http://www.w3.org/2000/svg"
   xmlns:svg="http://www.w3.org/2000/svg">
  <sodipodi:namedview
     id="namedview13"
     pagecolor="#505050"
     bordercolor="#eeeeee"
     borderopacity="1"
     inkscape:showpageshadow="0"
     inkscape:pageopacity="0"
     inkscape:pagecheckerboard="0"
     inkscape:deskcolor="#505050"
     inkscape:zoom="0.56695333"
     inkscape:cx="556.48319"
     inkscape:cy="207.2481"
     inkscape:window-width="1440"
     inkscape:window-height="900"
     inkscape:window-x="0"
     inkscape:window-y="0"
     inkscape:window-maximized="0"
     inkscape:current-layer="Слой_1" />
  <defs
     id="defs1">
    <style
       id="style1">.cls-1{fill:#1d1d1b;opacity:0.3;}.cls-2{fill:#f5b977;}.cls-3{fill:#f7931e;}.cls-4{fill:#f6cf94;}.cls-5{fill:#191616;}</style>
  </defs>
  <path
     d="M635.19,709.29q16.11,0,26,10.35t9.94,28.41v57.76H650.93V750.12q0-10.53-5.62-16.19t-15.37-5.64q-10.68,0-17.24,6.68t-6.55,20.42v50.42H585.91V674.11h20.24v49.67Q615.32,709.29,635.19,709.29Z"
     transform="translate(-140.7 -567.63)"
     id="path1"
     style="fill:#ffffff" />
  <path
     d="M745.94,709.29q19.29,0,33,14.39t13.68,35.09q0,20.88-13.68,35.19t-33,14.3q-21.37,0-32.79-15.81v51H692.91V711.74h20.24v13.54Q724.57,709.29,745.94,709.29Zm-24.36,71q8.43,8.56,21.17,8.56t21.18-8.56q8.43-8.57,8.43-21.55t-8.43-21.54q-8.43-8.57-21.18-8.56t-21.17,8.56q-8.43,8.57-8.43,21.54T721.58,780.32Z"
     transform="translate(-140.7 -567.63)"
     id="path2"
     style="fill:#ffffff" />
  <path
     d="M860.24,709.29q16.11,0,26,10.35t9.94,28.41v57.76H876V750.12q0-10.53-5.62-16.19T855,728.29q-10.68,0-17.24,6.68t-6.56,20.42v50.42H811V674.11h20.23v49.67Q840.37,709.29,860.24,709.29Z"
     transform="translate(-140.7 -567.63)"
     id="path3"
     style="fill:#ffffff" />
  <path
     d="M1102.52,711.74q15.92,0,25.67,10.35t9.74,27.84v58.33h-20.24v-57q0-9.78-4.87-15.15t-13.31-5.36q-9.36,0-14.9,6.21t-5.52,18.63v52.68h-20.24v-57q0-9.78-4.59-15.15t-13-5.36a19.47,19.47,0,0,0-15,6.3q-5.82,6.32-5.81,18.54v52.68H1000.2V714.19h20.24v11.28q9-13.72,26.79-13.73,18,0,26.61,14.86Q1083.21,711.74,1102.52,711.74Z"
     transform="translate(-140.7 -567.63)"
     id="path4"
     style="fill:#ffffff" />
  <path
     d="M1233.87,676.56h20.24v131.7h-20.24V794.72q-11.43,16-32.79,16-19.3,0-33-14.4t-13.68-35.09q0-20.9,13.68-35.19t33-14.29q21.36,0,32.79,15.8Zm-50.78,106.21q8.43,8.57,21.17,8.56t21.18-8.56q8.43-8.57,8.43-21.55t-8.43-21.54q-8.43-8.56-21.18-8.56t-21.17,8.56q-8.43,8.57-8.43,21.54T1183.09,782.77Z"
     transform="translate(-140.7 -567.63)"
     id="path5"
     style="fill:#ffffff" />
  <path
     class="cls-1"
     d="M469.46,905.52,319,981.36a23.62,23.62,0,0,1-21.26,0l-56.38-28.42-43.83-22.1-50.25-25.32a12,12,0,0,1,0-21.39l150.46-75.85a23.62,23.62,0,0,1,21.26,0l150.46,75.85A12,12,0,0,1,469.46,905.52Z"
     transform="translate(-140.7 -567.63)"
     id="path6" />
  <path
     class="cls-2"
     d="M464.33,643.75,319,570.09a22.84,22.84,0,0,0-20.55,0L152.87,643a11.45,11.45,0,0,0-6.39,10.33h0l-.41,181.77a11.43,11.43,0,0,0,6.34,10.35L297.7,919.14a22.81,22.81,0,0,0,20.55.05l145.62-73a11.45,11.45,0,0,0,6.39-10.33l.41-181.77A11.44,11.44,0,0,0,464.33,643.75Z"
     transform="translate(-140.7 -567.63)"
     id="path7" />
  <path
     class="cls-3"
     d="M470.46,653.73V835.51a11.45,11.45,0,0,1-6.36,10.34L318.64,919.17a22.78,22.78,0,0,1-10.27,2.44V653.73Z"
     transform="translate(-140.7 -567.63)"
     id="path8" />
  <path
     class="cls-4"
     d="M464.1,664.07,318.64,737.39a22.79,22.79,0,0,1-20.54,0l-54.51-27.48-42.37-21.35-48.58-24.49a11.59,11.59,0,0,1,0-20.68L298.1,570.07a22.79,22.79,0,0,1,20.54,0L464.1,643.39A11.58,11.58,0,0,1,464.1,664.07Z"
     transform="translate(-140.7 -567.63)"
     id="path9" />
  <polygon
     points="279.12 53.45 102.89 142.28 60.52 120.93 236.76 32.09 279.12 53.45"
     id="polygon9" />
  <polygon
     points="102.89 142.28 102.89 181.89 60.52 160.54 60.52 120.93 102.89 142.28"
     id="polygon10" />
  <path
     class="cls-5"
     d="M261.65,871.56c-.71-.42-1.3-.09-1.3.73v2.89a2.84,2.84,0,0,0,1.3,2.23l25.46,14.71c.71.41,1.29.08,1.3-.74v-2.89a2.8,2.8,0,0,0-1.29-2.23Z"
     transform="translate(-140.7 -567.63)"
     id="path10" />
  <polygon
     class="cls-5"
     points="141.18 289.28 135.24 295.75 138.79 297.79 138.75 310.64 143.48 313.37 143.52 300.52 147.06 302.57 141.18 289.28"
     id="polygon11" />
  <polygon
     class="cls-5"
     points="126.34 280.71 120.4 287.18 123.95 289.23 123.91 302.07 128.64 304.8 128.68 291.96 132.22 294 126.34 280.71"
     id="polygon12" />
  <path
     d="M394.87,817c-9.5,3.55-17.07.51-20-7.64a5.13,5.13,0,0,1,1.94-5.7c1.92-1.46,3.75-1.13,4.5.84,1.8,4.77,5.32,6.8,10.55,6,6.54-1,13.11-7.58,15.31-15.19a6.64,6.64,0,0,1,2.54-4c1.24-.83,2.36-1,3.28-.37a2.71,2.71,0,0,1,1,3.18,34.15,34.15,0,0,1-9,16A27.69,27.69,0,0,1,394.87,817Z"
     transform="translate(-140.7 -567.63)"
     id="path12" />
  <ellipse
     cx="364.75"
     cy="779.12"
     rx="12.27"
     ry="8.55"
     transform="translate(-626.2 80.54) rotate(-56.16)"
     id="ellipse12" />
  <ellipse
     cx="414.08"
     cy="762.8"
     rx="12.27"
     ry="8.55"
     transform="translate(-590.78 114.28) rotate(-56.16)"
     id="ellipse13" />
  <circle
     class="cls-3"
     cx="805.5"
     cy="222.2"
     r="18.43"
     id="circle13" />
</svg>
