<svg width="28" height="19" viewBox="0 0 28 19" fill="none" xmlns="http://www.w3.org/2000/svg">
<g clip-path="url(#clip0_284_1543)">
<path d="M26.8333 0.5H1.16667C0.522334 0.5 0 0.947715 0 1.5C0 2.05228 0.522334 2.5 1.16667 2.5H26.8333C27.4777 2.5 28 2.05228 28 1.5C28 0.947715 27.4777 0.5 26.8333 0.5Z" fill="white"/>
<path d="M26.8333 8.5H1.16667C0.522334 8.5 0 8.94772 0 9.5C0 10.0523 0.522334 10.5 1.16667 10.5H26.8333C27.4777 10.5 28 10.0523 28 9.5C28 8.94772 27.4777 8.5 26.8333 8.5Z" fill="white"/>
<path d="M26.8333 16.5H1.16667C0.522334 16.5 0 16.9477 0 17.5C0 18.0523 0.522334 18.5 1.16667 18.5H26.8333C27.4777 18.5 28 18.0523 28 17.5C28 16.9477 27.4777 16.5 26.8333 16.5Z" fill="white"/>
</g>
<defs>
<clipPath id="clip0_284_1543">
<rect width="28" height="18" fill="white" transform="translate(0 0.5)"/>
</clipPath>
</defs>
</svg>
