<svg width="49" height="49" viewBox="0 0 49 49" fill="none" xmlns="http://www.w3.org/2000/svg">
<path d="M46.9148 35.4779L40.8648 29.3779C39.8648 28.3779 38.5148 27.7779 37.2648 27.7779C35.9148 27.7779 34.7148 28.3279 33.6648 29.3779L30.1648 32.8779C30.0148 32.7779 29.8148 32.6779 29.6648 32.6279C29.6648 32.6279 29.6148 32.6279 29.6148 32.5779L29.5648 32.5279C29.1148 32.2279 28.6148 31.9279 28.0148 31.6779C24.9648 29.7779 22.1148 27.1279 19.2148 23.5779C17.8648 21.8779 16.9148 20.3779 16.1648 18.7279C16.9648 18.0779 17.5648 17.4279 18.0148 16.9279L19.5648 15.3779C20.7648 14.2779 21.3648 13.0279 21.3648 11.7279C21.3648 10.3779 20.7648 9.12788 19.6148 7.92788L14.8648 3.17788C14.4148 2.72788 13.9648 2.27788 13.4648 1.82788C12.4648 0.877881 11.2148 0.327881 9.91481 0.327881C8.46481 0.327881 7.26481 0.827881 6.16481 1.92788L2.51481 5.57788C1.06481 6.92788 0.214806 8.62788 0.0148058 10.7279V10.7779C-0.0851942 13.3779 0.314803 15.7779 1.4148 18.7779C3.1648 23.4779 5.81481 27.8779 9.76481 32.7279C14.9148 38.5279 20.7148 43.0279 27.1648 46.1279L27.3148 46.1779C29.2148 47.0279 32.8148 48.6279 36.8148 48.8779H37.3648C40.0148 48.8779 42.0148 48.0279 43.6648 46.2279C44.2648 45.5279 44.9148 44.8779 45.4648 44.2779C45.9148 43.9279 46.2148 43.5779 46.5148 43.2279L46.9148 42.8279L47.0148 42.7279C49.1148 40.4279 49.1148 37.6279 46.9148 35.4779ZM45.1648 41.0279L44.6648 41.5279L44.6148 41.6279C44.3648 41.9279 44.1648 42.1779 43.9148 42.3779L43.7648 42.5279C43.1648 43.1279 42.4648 43.8279 41.7648 44.6279C40.6148 45.8779 39.3148 46.4279 37.3648 46.4279H36.9648C33.4648 46.1779 30.2648 44.7779 28.3648 43.9279L28.2648 43.8779C22.1148 40.9279 16.5648 36.6279 11.7148 31.1279C7.9148 26.5279 5.41481 22.3279 3.76481 17.9279C2.76481 15.1779 2.41481 13.1779 2.51481 10.9279C2.66481 9.47788 3.21481 8.32788 4.21481 7.42788L7.91481 3.72788C8.51481 3.12788 9.1148 2.87788 9.8648 2.87788C10.5148 2.87788 11.1148 3.17788 11.6648 3.67788L11.7148 3.72788C12.1648 4.12788 12.6148 4.57788 13.0648 5.02788L17.8148 9.77788C18.7148 10.6779 18.8648 11.3779 18.8648 11.7779C18.8648 12.1779 18.7648 12.7779 17.8148 13.6279L16.2148 15.2279C15.6648 15.8279 15.0148 16.4779 14.1648 17.1779L14.0648 17.2779L13.9648 17.4279C13.5148 18.0279 13.4648 18.5779 13.7148 19.3779L13.7648 19.5779L13.8148 19.7779C14.6648 21.6279 15.7148 23.3279 17.2148 25.2279C20.3148 29.0279 23.4148 31.8779 26.7148 33.9279L26.8648 34.0279C27.2648 34.2279 27.6648 34.4279 28.0148 34.6279C28.1648 34.7779 28.3648 34.8779 28.5148 34.9279C28.7148 35.0279 28.8648 35.0779 28.9648 35.1779L29.3148 35.4279H29.4148L29.5648 35.4779C29.8648 35.5779 30.0648 35.5779 30.2148 35.5779C30.7148 35.5779 31.1648 35.3779 31.6148 34.9279L35.3648 31.1779C35.9648 30.5779 36.5148 30.3279 37.2148 30.3279C37.9648 30.3279 38.6648 30.7779 39.0648 31.1779L45.1648 37.2779C46.3648 38.4779 46.4148 39.7279 45.1648 41.0279Z" fill="black"/>
</svg>
