<svg width="41" height="44" viewBox="0 0 41 44" fill="none" xmlns="http://www.w3.org/2000/svg">
<path d="M6.5636 27.561L16.6254 33.2645L10.5579 43.9685L7.32378 37.7317L0.496118 38.2651L6.5636 27.561Z" fill="#40596B"/>
<circle cx="20.4288" cy="17.2258" r="17.2258" fill="#FFD15C"/>
<ellipse cx="20.4289" cy="17.226" rx="12.3041" ry="12.3041" fill="#F8B64C"/>
<path d="M24.6122 33.3442L34.6286 27.5613L40.7807 38.217L33.765 37.8438L30.7643 43.9999L24.6122 33.3442Z" fill="#40596B"/>
<path d="M17.5819 13.9683L20.0041 9.83045C20.1942 9.50574 20.6635 9.50574 20.8536 9.83045L23.2757 13.9683C23.3435 14.0841 23.4556 14.1672 23.586 14.1984L28.2306 15.309C28.595 15.3962 28.7323 15.8424 28.4798 16.1193L25.3766 19.5228C25.2817 19.6268 25.236 19.7665 25.2509 19.9065L25.7535 24.6313C25.7933 25.0059 25.4148 25.2846 25.069 25.1352L20.6239 23.2158C20.4994 23.162 20.3582 23.162 20.2337 23.2158L15.7887 25.1352C15.4429 25.2846 15.0643 25.0059 15.1042 24.6313L15.6068 19.9065C15.6217 19.7665 15.5759 19.6268 15.4811 19.5228L12.3779 16.1193C12.1254 15.8424 12.2626 15.3962 12.6271 15.309L17.2716 14.1984C17.4021 14.1672 17.5142 14.0841 17.5819 13.9683Z" fill="white"/>
</svg>
