<svg width="50" height="51" viewBox="0 0 50 51" fill="none" xmlns="http://www.w3.org/2000/svg">
<g clip-path="url(#clip0_345_481)">
<path fill-rule="evenodd" clip-rule="evenodd" d="M25 0.87793C11.1937 0.87793 0 12.0717 0 25.8779C0 39.6842 11.1937 50.8779 25 50.8779C38.8062 50.8779 50 39.6842 50 25.8779C50 12.0717 38.8062 0.87793 25 0.87793ZM36.5875 17.88C36.2125 21.8321 34.5833 31.4258 33.7562 35.8529C33.4062 37.7279 32.7146 38.355 32.0479 38.4154C30.5958 38.5488 29.4937 37.455 28.0875 36.5342C25.8875 35.0925 24.6437 34.1946 22.5083 32.7863C20.0396 31.1592 21.6396 30.2654 23.0458 28.805C23.4146 28.4217 29.8104 22.6029 29.9354 22.0758C29.95 22.0092 29.9667 21.7633 29.8187 21.6342C29.6708 21.505 29.4562 21.5488 29.3021 21.5842C29.0812 21.6342 25.5667 23.9571 18.7563 28.5529C17.7583 29.2383 16.8542 29.5717 16.0438 29.555C15.1521 29.5363 13.4354 29.0508 12.1583 28.6342C10.5938 28.1258 9.34792 27.855 9.45625 26.9925C9.5125 26.5425 10.1313 26.0821 11.3146 25.6113C18.6021 22.4363 23.4625 20.3425 25.8937 19.33C32.8375 16.4425 34.2792 15.9404 35.2208 15.9238C36.4 15.9071 36.6833 16.88 36.5875 17.88Z" fill="black"/>
</g>
<defs>
<clipPath id="clip0_345_481">
<rect width="50" height="50" fill="white" transform="translate(0 0.87793)"/>
</clipPath>
</defs>
</svg>
