<svg width="117" height="128" viewBox="0 0 117 128" fill="none" xmlns="http://www.w3.org/2000/svg">
<path d="M0 35.8789H116.364V104.727C116.364 117.581 105.944 128 93.0909 128H23.2727C10.4196 128 0 117.581 0 104.727V35.8789Z" fill="#C4E59E"/>
<rect x="23.2727" y="15.5151" width="15.5152" height="34.9091" fill="#99CC71"/>
<rect x="78.5454" y="15.5151" width="15.5152" height="34.9091" fill="#99CC71"/>
<path d="M38.5109 0H78.5454L94.0606 15.5152H23.2727L38.5109 0Z" fill="#C4E59E"/>
<path fill-rule="evenodd" clip-rule="evenodd" d="M75.6141 61.3074L58.5872 78.5398V62.5559C65.0478 59.5977 71.293 59.0418 75.6141 61.3074ZM79.3209 64.6698L57.8658 86.3838L57.8655 86.3841L56.1048 88.1666H74.8435C81.0314 79.5309 82.9369 70.239 79.3209 64.6698ZM70.6915 93.1666H51.1654L40.1699 104.292C47.2392 107.954 59.4097 104.116 69.2697 94.5966C69.7574 94.1258 70.2314 93.6488 70.6915 93.1666ZM36.4447 100.949L48.3426 88.9097L48.343 88.9093L53.5872 83.6004V65.3088C51.1516 66.8801 48.7479 68.7776 46.4678 70.979C36.0225 81.0636 31.8578 93.9636 36.4447 100.949Z" fill="white"/>
</svg>
