<svg width="147" height="128" viewBox="0 0 147 128" fill="none" xmlns="http://www.w3.org/2000/svg">
<path d="M136.52 111.5C137.257 100.442 138.43 81.5408 138.43 81.5408H8.53345C8.53345 81.5408 9.70655 100.442 10.4437 111.5C11.1808 122.559 23.1786 128 33.3666 128H113.597C123.785 128 135.782 122.559 136.52 111.5Z" fill="#90E7FC"/>
<path d="M136.519 111.5C137.257 100.442 138.43 81.5408 138.43 81.5408H111.407C111.407 81.5408 110.933 93.8667 109.511 102.874C108.089 111.882 100.504 117.57 92.4444 117.57H12.1907C16.0022 124.553 25.2576 128 33.3664 128H113.597C123.784 128 135.782 122.559 136.519 111.5Z" fill="#58D5EA"/>
<path d="M113.596 128C123.784 128 135.782 122.559 136.519 111.5C136.795 107.36 137.132 102.121 137.446 97.1852C137.446 97.1852 132.74 94.548 129.422 94.3408C125.387 94.0887 123.508 97.2967 119.467 97.1852C115.779 97.0835 114.148 94.3408 110.459 94.3408C106.77 94.3408 105.139 97.0835 101.452 97.1852C97.4098 97.2967 95.5393 94.2876 91.4962 94.3408C87.6308 94.3916 85.8801 97.241 82.0147 97.1852C78.3263 97.132 76.6958 94.394 73.0073 94.3408C69.1419 94.285 67.3904 97.0878 63.5258 97.1852C59.3054 97.2916 57.3147 94.1735 53.0962 94.3408C49.4103 94.4869 47.7772 97.2438 44.0888 97.1852C40.5765 97.1295 39.0628 94.5356 35.5555 94.3408C31.3402 94.1066 29.3411 97.4194 25.1258 97.1852C21.6185 96.9904 20.0988 94.1285 16.5925 94.3408C13.6197 94.5208 9.5166 97.1852 9.5166 97.1852C9.83036 102.121 10.1675 107.36 10.4434 111.5C11.1806 122.559 23.1784 128 33.3663 128H113.596Z" fill="#F4D0A7"/>
<path fill-rule="evenodd" clip-rule="evenodd" d="M125.132 125.695C131.199 123.129 136.059 118.412 136.519 111.5C136.795 107.36 137.132 102.121 137.446 97.1852C137.446 97.1852 132.74 94.548 129.422 94.3408C127.374 94.2128 125.881 94.9765 124.379 95.745C122.922 96.4903 121.457 97.2401 119.467 97.1852C117.648 97.135 116.329 96.4424 115.018 95.7533C113.69 95.0559 112.369 94.362 110.543 94.3413C110.275 97.204 109.935 100.187 109.511 102.874C108.089 111.882 100.504 117.57 92.4444 117.57H12.1907C14.8344 122.414 20.097 125.556 25.7795 127.027C27.2657 127.411 28.7805 127.682 30.2848 127.838C31.3213 127.946 32.3528 128 33.3664 128L113.596 128C113.596 128 113.596 128 113.597 128C117.417 128 121.492 127.235 125.132 125.695Z" fill="#E5B379"/>
<path d="M62.6215 112.356C55.5104 112.356 40.8141 104.296 41.7623 81.5408H51.7178V87.7037C51.8758 92.9185 55.226 102.874 67.3623 102.874H80.6364C92.7727 102.874 96.1229 92.9185 96.2809 87.7037V81.5408H106.236C107.185 104.296 92.4883 112.356 85.3772 112.356H62.6215Z" fill="#F7931E"/>
<path d="M85.3772 112.356C92.4883 112.356 107.185 104.296 106.236 81.5408H101.259C101.259 91.9704 95.763 106.667 83.9111 108.563C80.1273 109.168 66.3704 109.037 59.2593 108.563C54.7482 108.04 50.6308 106.671 49.3894 105.719C53.7927 110.406 59.1244 112.356 62.6216 112.356H85.3772Z" fill="#F48400"/>
<path d="M0 68.4443C0 68.4443 3.95966e-05 65.4221 3.58446 65.4221H143.379C146.963 65.4221 146.963 68.4073 146.963 68.4073V78.5184C146.963 78.5184 146.963 81.5406 143.379 81.5406H3.58446C0 81.5406 0 78.5184 0 78.5184V68.4443Z" fill="#F7931E"/>
<path d="M3.58446 81.5406C0 81.5406 0 78.5184 0 78.5184V74.4888H128.443C128.443 74.4888 130.833 74.4888 130.833 72.474V65.4221H143.379C146.963 65.4221 146.963 68.4073 146.963 68.4073V78.5184C146.963 78.5184 146.963 81.5406 143.379 81.5406H3.58446Z" fill="#F48400"/>
<path d="M59.0325 75.4962V81.5406H87.2296V75.4962C87.2296 72.9777 85.7191 71.4666 83.2015 71.4666H63.0606C60.543 71.4666 59.0325 72.9777 59.0325 75.4962Z" fill="#F4D0A7"/>
<path d="M87.2295 75.4962C87.2295 72.9777 85.7189 71.4666 83.2013 71.4666H74.6414C74.6414 71.4666 78.6695 72.474 78.6695 75.4962L78.6696 81.5406H87.2295V75.4962Z" fill="#E5B379"/>
<path d="M119.941 47.8815C120.49 35.8075 121.363 15.1704 121.363 15.1704H24.6519C24.6519 15.1704 25.5253 35.8075 26.0741 47.8815C26.6229 59.9556 35.5556 65.8963 43.1407 65.8963H102.874C110.459 65.8963 119.392 59.9556 119.941 47.8815Z" fill="#90E7FC"/>
<path d="M42.3136 32.2404C45.0901 32.1326 48.8451 34.68 49.3642 35.0422C49.8833 34.68 53.6383 32.1326 56.4149 32.2404C60.1608 32.3858 62.6485 34.181 64.4742 37.4552C66.1896 40.5317 65.4432 42.9751 64.9482 46.4626C64.099 52.4473 59.2594 59.7366 57.8371 60.2108C56.4149 60.6849 55.4667 60.6849 54.0445 60.2108C53.4747 60.0208 52.6223 59.7366 51.6742 59.2625C50.8421 58.8465 49.6448 58.7955 49.3642 58.7893C49.0837 58.7955 47.8864 58.8465 47.0543 59.2625C46.1061 59.7366 45.2537 60.0208 44.6839 60.2108C43.2617 60.6849 42.3136 60.6849 40.8913 60.2108C39.4691 59.7366 34.6295 52.4473 33.7802 46.4626C33.2853 42.9751 32.5388 40.5317 34.2543 37.4552C36.08 34.181 38.5676 32.3858 42.3136 32.2404Z" fill="#ED500A"/>
<path d="M47.4075 30.8147V36.0295C47.4075 37.1673 48.166 37.9258 49.3038 37.9258C50.4415 37.9258 51.2001 36.9777 51.2001 36.0295V32.711C51.2001 30.8147 51.6741 29.3925 54.9927 29.3925C56.889 29.3925 56.889 28.4443 56.889 27.4962C56.889 27.4962 56.889 26.074 54.9927 26.074H52.6223C50.2519 26.074 47.4075 29.3925 47.4075 30.8147Z" fill="#824A25"/>
<path d="M39.8223 21.3333C45.5112 21.8073 50.1571 26.074 49.7778 31.7629C44.0889 31.2888 39.8223 27.9703 39.8223 21.3333Z" fill="#1AA81A"/>
<path d="M46.4593 31.1007C42.5082 29.7761 39.8223 26.5992 39.8223 21.3333C45.0371 24.1777 45.9852 27.4962 46.4593 31.1007Z" fill="#34B836"/>
<path d="M103.822 22.7556H79.6446C73.9557 22.7556 70.1631 27.4964 70.1631 34.1334V50.2519C70.1631 55.9408 73.9557 60.6815 79.6446 60.6815H103.822C109.511 60.6815 112.83 54.5186 112.83 50.2519V34.1334C112.83 28.4445 108.089 22.7556 103.822 22.7556Z" fill="#5AD557"/>
<path d="M119.941 47.8815C120.49 35.8075 121.363 15.1704 121.363 15.1704H96.7111C96.7111 15.1704 96.237 36.0297 95.7629 40.7704C95.2888 45.5112 90.074 56.8889 79.6444 56.8889H28.4541C31.721 62.9167 37.7688 65.8963 43.1407 65.8963H102.874C110.459 65.8963 119.392 59.9556 119.941 47.8815Z" fill="#58D5EA"/>
<path fill-rule="evenodd" clip-rule="evenodd" d="M38.0176 56.8889C39.2062 58.7404 40.3223 60.0211 40.8913 60.2108C42.3135 60.6849 43.2617 60.6849 44.6839 60.2108C45.2537 60.0208 46.1061 59.7366 47.0543 59.2625C47.8864 58.8465 49.0836 58.7956 49.3642 58.7893C49.6448 58.7956 50.842 58.8465 51.6742 59.2625C52.6223 59.7366 53.4747 60.0208 54.0445 60.2108C55.4667 60.6849 56.4149 60.6849 57.8371 60.2108C58.4061 60.0211 59.5222 58.7404 60.7108 56.8889H38.0176Z" fill="#DB3317"/>
<path fill-rule="evenodd" clip-rule="evenodd" d="M72.2053 56.8889C73.8688 59.1955 76.4594 60.6815 79.6445 60.6815H103.822C109.511 60.6815 112.83 54.5186 112.83 50.2519V34.1334C112.83 28.4445 108.089 22.7556 103.822 22.7556H96.5157C96.3338 29.2246 96.0484 37.9171 95.7631 40.7704C95.289 45.5112 90.0742 56.8889 79.6446 56.8889H72.2053Z" fill="#43BF41"/>
<path d="M15.1704 2.84444C15.1704 2.84444 15.1704 0 17.9917 0H128.023C130.844 0 130.844 2.80959 130.844 2.80959V12.3259C130.844 12.3259 130.844 15.1704 128.023 15.1704H17.9917C15.1704 15.1704 15.1704 12.3259 15.1704 12.3259V2.84444Z" fill="#F7931E"/>
<path d="M17.9917 15.1704C15.1704 15.1704 15.1704 12.3259 15.1704 12.3259V8.53333H116.268C116.268 8.53333 118.149 8.53333 118.149 6.63704V0H128.023C130.844 0 130.844 2.80959 130.844 2.80959V12.3259C130.844 12.3259 130.844 15.1704 128.023 15.1704H17.9917Z" fill="#F48400"/>
<path d="M60.3115 9.48156V15.1704H86.6438V9.48156C86.6438 7.11119 85.2332 5.68896 82.8821 5.68896H64.0733C61.7222 5.68896 60.3115 7.11119 60.3115 9.48156Z" fill="#F4D0A7"/>
<path d="M86.6437 9.48156C86.6437 7.11119 85.2331 5.68896 82.882 5.68896H74.8882C74.8882 5.68896 78.6499 6.63711 78.6499 9.48156L78.65 15.1704H86.6437V9.48156Z" fill="#E5B379"/>
</svg>
