<svg width="107" height="128" viewBox="0 0 107 128" fill="none" xmlns="http://www.w3.org/2000/svg">
<path d="M86.4415 128H19.5324L16.2078 99.3247H89.7662L86.4415 128Z" fill="#EAEAEA"/>
<path d="M6.64941 50.7014L13.2988 99.3248H93.5066L100.156 50.7014H6.64941Z" fill="#FDB52E"/>
<path d="M9.14282 30.7532L11.6363 50.7012H96L98.0779 30.7532H9.14282Z" fill="#EAEAEA"/>
<path d="M0 13.2986V30.7531H106.39V13.2986H0Z" fill="#855138"/>
<path d="M11.2207 0L9.14282 13.2987H97.2467L95.1688 0H11.2207Z" fill="#73452E"/>
<path d="M93.5064 99.3248H31.5845C50.2858 91.0131 72.3116 73.5586 86.0259 50.7014H100.156L93.5064 99.3248Z" fill="#F7931E"/>
<path d="M50.2858 13.2986L33.2468 30.7531H106.39V13.2986H50.2858Z" fill="#7D4A30"/>
<path d="M76.8831 0L64 13.2987H97.2468L95.1688 0H76.8831Z" fill="#6E3F28"/>
</svg>
