<svg width="20" height="11" viewBox="0 0 20 11" fill="none" xmlns="http://www.w3.org/2000/svg">
<path d="M9.99657 10.2268C9.44903 10.2278 8.90667 10.1209 8.40049 9.91211C7.8943 9.70335 7.43423 9.39686 7.04657 9.01018L0.23824 2.20185C0.0813206 2.04493 -0.00683594 1.8321 -0.00683594 1.61018C-0.00683594 1.38826 0.0813206 1.17543 0.23824 1.01851C0.39516 0.861594 0.607989 0.773438 0.829907 0.773438C1.05183 0.773438 1.26465 0.861594 1.42157 1.01851L8.22991 7.82685C8.69866 8.29502 9.33407 8.55798 9.99657 8.55798C10.6591 8.55798 11.2945 8.29502 11.7632 7.82685L18.5716 1.01851C18.7285 0.861594 18.9413 0.773438 19.1632 0.773438C19.3852 0.773438 19.598 0.861594 19.7549 1.01851C19.9118 1.17543 20 1.38826 20 1.61018C20 1.8321 19.9118 2.04493 19.7549 2.20185L12.9466 9.01018C12.5589 9.39686 12.0988 9.70335 11.5927 9.91211C11.0865 10.1209 10.5441 10.2278 9.99657 10.2268Z" fill="white"/>
</svg>
