<svg width="336" height="417" viewBox="0 0 336 417" fill="none" xmlns="http://www.w3.org/2000/svg">
<path opacity="0.3" d="M328.738 337.895L178.278 413.735C174.981 415.397 171.34 416.262 167.648 416.262C163.956 416.262 160.315 415.397 157.018 413.735L100.638 385.315L56.8078 363.215L6.55785 337.895C4.58447 336.891 2.92739 335.36 1.76999 333.473C0.612586 331.585 0 329.414 0 327.2C0 324.986 0.612586 322.815 1.76999 320.927C2.92739 319.04 4.58447 317.509 6.55785 316.505L157.018 240.655C160.315 238.994 163.956 238.128 167.648 238.128C171.34 238.128 174.981 238.994 178.278 240.655L328.738 316.505C330.711 317.509 332.368 319.04 333.526 320.927C334.683 322.815 335.296 324.986 335.296 327.2C335.296 329.414 334.683 331.585 333.526 333.473C332.368 335.36 330.711 336.891 328.738 337.895Z" fill="#1D1D1B"/>
<path d="M323.608 76.1252L178.278 2.46521C175.091 0.859753 171.571 0.0234375 168.003 0.0234375C164.434 0.0234375 160.915 0.859753 157.728 2.46521L12.1477 75.3752C10.221 76.3244 8.6 77.7963 7.47005 79.623C6.34011 81.4496 5.74674 83.5573 5.75774 85.7052L5.34775 267.475C5.32604 269.622 5.90919 271.731 7.03045 273.561C8.1517 275.392 9.76573 276.869 11.6877 277.825L156.978 351.515C160.16 353.131 163.678 353.977 167.247 353.986C170.816 353.994 174.337 353.165 177.528 351.565L323.148 278.565C325.075 277.616 326.695 276.144 327.825 274.317C328.955 272.491 329.549 270.383 329.538 268.235L329.948 86.4652C329.966 84.3207 329.382 82.2141 328.261 80.3858C327.14 78.5575 325.527 77.0812 323.608 76.1252Z" fill="#F5B977"/>
<path d="M329.738 86.105V267.885C329.754 270.031 329.166 272.139 328.041 273.967C326.916 275.796 325.301 277.271 323.378 278.225L177.918 351.545C174.733 353.151 171.215 353.987 167.648 353.985V86.105H329.738Z" fill="#F7931E"/>
<path d="M323.378 96.4452L177.918 169.765C174.733 171.373 171.215 172.21 167.648 172.21C164.08 172.21 160.563 171.373 157.378 169.765L102.868 142.285L60.4978 120.935L11.9178 96.4452C10.0064 95.4774 8.40074 93.9987 7.27902 92.1734C6.15731 90.3481 5.56348 88.2476 5.56348 86.1052C5.56348 83.9627 6.15731 81.8623 7.27902 80.037C8.40074 78.2117 10.0064 76.733 11.9178 75.7652L157.378 2.44519C160.563 0.837532 164.08 0 167.648 0C171.215 0 174.733 0.837532 177.918 2.44519L323.378 75.7652C325.292 76.7304 326.901 78.2081 328.025 80.0338C329.149 81.8594 329.744 83.9612 329.744 86.1052C329.744 88.2491 329.149 90.3509 328.025 92.1766C326.901 94.0022 325.292 95.48 323.378 96.4452Z" fill="#F6CF94"/>
<path d="M279.098 53.4552L102.868 142.285L60.4978 120.935L236.738 32.0952L279.098 53.4552Z" fill="black"/>
<path d="M102.868 142.285V181.895L60.4978 160.545V120.935L102.868 142.285Z" fill="black"/>
<path d="M120.928 303.935C120.218 303.515 119.628 303.845 119.628 304.665V307.555C119.653 308.003 119.784 308.439 120.01 308.826C120.236 309.214 120.55 309.542 120.928 309.785L146.388 324.495C147.098 324.905 147.678 324.575 147.688 323.755V320.865C147.667 320.417 147.539 319.981 147.315 319.593C147.09 319.205 146.776 318.876 146.398 318.635L120.928 303.935Z" fill="#191616"/>
<path d="M141.158 289.285L135.218 295.755L138.768 297.795L138.728 310.645L143.458 313.375L143.498 300.525L147.038 302.575L141.158 289.285Z" fill="#191616"/>
<path d="M126.318 280.715L120.378 287.185L123.928 289.235L123.888 302.075L128.618 304.805L128.658 291.965L132.198 294.005L126.318 280.715Z" fill="#191616"/>
<path d="M254.148 249.375C244.648 252.925 237.078 249.885 234.148 241.735C233.829 240.702 233.845 239.594 234.194 238.571C234.542 237.547 235.205 236.66 236.088 236.035C238.008 234.575 239.838 234.905 240.588 236.875C242.388 241.645 245.908 243.675 251.138 242.875C257.678 241.875 264.248 235.295 266.448 227.685C266.774 226.085 267.678 224.661 268.988 223.685C270.228 222.855 271.348 222.685 272.268 223.315C272.765 223.658 273.133 224.157 273.314 224.733C273.496 225.309 273.479 225.929 273.268 226.495C271.784 232.55 268.672 238.083 264.268 242.495C261.45 245.515 257.992 247.865 254.148 249.375Z" fill="black"/>
<path d="M231.134 216.219C234.907 210.591 234.787 203.896 230.865 201.267C226.943 198.637 220.704 201.068 216.931 206.697C213.157 212.325 213.277 219.02 217.199 221.649C221.121 224.279 227.36 221.848 231.134 216.219Z" fill="black"/>
<path d="M280.469 199.898C284.243 194.269 284.123 187.575 280.2 184.945C276.278 182.316 270.04 184.747 266.266 190.375C262.492 196.004 262.613 202.699 266.535 205.328C270.457 207.958 276.695 205.527 280.469 199.898Z" fill="black"/>
</svg>
